<svg xmlns="http://www.w3.org/2000/svg" width="27" height="26" fill="none" viewBox="0 0 27 26">
    <path fill="#FFB300" d="M15.429 20.72c0 .27-.211.497-.482.497h-2.894a.489.489 0 0 1-.482-.497v-2.864c0-.27.211-.497.482-.497h2.894c.27 0 .482.226.482.497v2.864zm-.03-5.636c-.015.196-.241.346-.513.346H12.1c-.287 0-.513-.15-.513-.346l-.256-6.887c0-.09.045-.24.15-.316.091-.075.227-.166.362-.166h3.316c.135 0 .27.09.361.166.106.075.15.196.15.286l-.27 6.917zM15.188 1.01a1.917 1.917 0 0 0-3.376 0L.24 22.226a1.9 1.9 0 0 0 .03 1.899c.347.588.98.95 1.658.95h23.146a1.93 1.93 0 0 0 1.657-.95 1.9 1.9 0 0 0 .03-1.899L15.188 1.01z"/>
</svg>
