<svg xmlns="http://www.w3.org/2000/svg" width="70" height="70" viewBox="0 0 70 70">
    <g fill="none">
        <circle cx="25" cy="25" r="25" fill="#fff" filter="url(#a)" transform="translate(10 5)"/>
        <path fill="#8560FD" d="M46.556 41.182H29.312c-.788 0-1.445-.666-1.445-1.465v-10.92c0-.8.657-1.465 1.445-1.465h17.244c.788 0 1.444.666 1.444 1.465V39.76c0 .755-.657 1.42-1.444 1.42zM29.312 28.13a.603.603 0 0 0-.613.621v10.965c0 .355.262.621.613.621h17.244c.35 0 .612-.266.612-.621v-10.92a.603.603 0 0 0-.612-.622H29.312v-.044z"/>
        <path stroke="#8560FD" stroke-miterlimit="10" stroke-width=".27" d="M46.556 41.182H29.312c-.788 0-1.445-.666-1.445-1.465v-10.92c0-.8.657-1.465 1.445-1.465h17.244c.788 0 1.444.666 1.444 1.465V39.76c0 .755-.657 1.42-1.444 1.42zM29.312 28.13a.603.603 0 0 0-.613.621v10.965c0 .355.262.621.613.621h17.244c.35 0 .612-.266.612-.621v-10.92a.603.603 0 0 0-.612-.622H29.312v-.044z"/>
        <path fill="#8560FD" d="M26.904 38.252a.47.47 0 0 1-.306-.133l-6.171-6.26a1.543 1.543 0 0 1 0-2.13l12.167-12.296a1.491 1.491 0 0 1 2.1 0l7.616 7.724c.263.266.438.666.438 1.065 0 .222-.175.4-.438.4-.219 0-.438-.178-.438-.4a.683.683 0 0 0-.175-.444l-7.615-7.768a.628.628 0 0 0-.92 0L20.997 30.35a.65.65 0 0 0 0 .933l6.215 6.259c.175.177.175.444 0 .577a.395.395 0 0 1-.307.133z"/>
        <path stroke="#8560FD" stroke-miterlimit="10" stroke-width=".27" d="M26.904 38.252a.47.47 0 0 1-.306-.133l-6.171-6.26a1.543 1.543 0 0 1 0-2.13l12.167-12.296a1.491 1.491 0 0 1 2.1 0l7.616 7.724c.263.266.438.666.438 1.065 0 .222-.175.4-.438.4-.219 0-.438-.178-.438-.4a.683.683 0 0 0-.175-.444l-7.615-7.768a.628.628 0 0 0-.92 0L20.997 30.35a.65.65 0 0 0 0 .933l6.215 6.259c.175.177.175.444 0 .577a.395.395 0 0 1-.307.133z"/>
        <path fill="#8560FD" d="M47.562 30.217h-19.3a.395.395 0 0 1-.395-.4c0-.221.175-.443.394-.443h19.301c.22 0 .394.177.394.444.044.222-.131.4-.394.4z"/>
        <path stroke="#8560FD" stroke-miterlimit="10" stroke-width=".27" d="M47.562 30.217h-19.3a.395.395 0 0 1-.395-.4c0-.221.175-.443.394-.443h19.301c.22 0 .394.177.394.444.044.222-.131.4-.394.4z"/>
        <g>
            <path fill="#8560FD" d="M47.562 33.014h-19.3c-.22 0-.395-.178-.395-.444 0-.222.175-.4.394-.4h19.301c.22 0 .394.178.394.4.044.222-.131.444-.394.444z"/>
            <path stroke="#8560FD" stroke-miterlimit="10" stroke-width=".27" d="M47.562 33.014h-19.3c-.22 0-.395-.178-.395-.444 0-.222.175-.4.394-.4h19.301c.22 0 .394.178.394.4.044.222-.131.444-.394.444z"/>
        </g>
        <g>
            <path fill="#8560FD" d="M35.264 35.589h-5.077c-.22 0-.394-.178-.394-.444 0-.267.175-.444.394-.444h5.12c.22 0 .438.177.438.444 0 .266-.219.444-.481.444z"/>
            <path stroke="#8560FD" stroke-miterlimit="10" stroke-width=".27" d="M35.264 35.589h-5.077c-.22 0-.394-.178-.394-.444 0-.267.175-.444.394-.444h5.12c.22 0 .438.177.438.444 0 .266-.219.444-.481.444z"/>
            <g>
                <path fill="#8560FD" d="M35.264 37.764h-5.077c-.22 0-.394-.178-.394-.444 0-.222.175-.444.394-.444h5.12c.22 0 .438.177.438.444-.044.266-.219.444-.481.444z"/>
                <path stroke="#8560FD" stroke-miterlimit="10" stroke-width=".27" d="M35.264 37.764h-5.077c-.22 0-.394-.178-.394-.444 0-.222.175-.444.394-.444h5.12c.22 0 .438.177.438.444-.044.266-.219.444-.481.444z"/>
            </g>
        </g>
        <g>
            <path fill="#8560FD" d="M43.23 38.252c-1.095 0-1.97-.888-1.97-1.998 0-1.11.875-1.997 1.97-1.997 1.093 0 1.969.888 1.969 1.997 0 1.11-.876 1.998-1.97 1.998zm0-3.152c-.657 0-1.139.533-1.139 1.154a1.138 1.138 0 1 0 2.276 0c0-.666-.481-1.154-1.138-1.154z"/>
            <path stroke="#8560FD" stroke-miterlimit="10" stroke-width=".27" d="M43.23 38.252c-1.095 0-1.97-.888-1.97-1.998 0-1.11.875-1.997 1.97-1.997 1.093 0 1.969.888 1.969 1.997 0 1.11-.876 1.998-1.97 1.998zm0-3.152c-.657 0-1.139.533-1.139 1.154a1.138 1.138 0 1 0 2.276 0c0-.666-.481-1.154-1.138-1.154z"/>
        </g>
    </g>
    <defs>
        <filter id="a" width="70" height="70" x="0" y="0" color-interpolation-filters="sRGB" filterUnits="userSpaceOnUse">
            <feFlood flood-opacity="0" result="BackgroundImageFix"/>
            <feColorMatrix in="SourceAlpha" values="0 0 0 0 0 0 0 0 0 0 0 0 0 0 0 0 0 0 255 0"/>
            <feOffset dy="5"/>
            <feGaussianBlur stdDeviation="5"/>
            <feColorMatrix values="0 0 0 0 0 0 0 0 0 0 0 0 0 0 0 0 0 0 0.25 0"/>
            <feBlend in2="BackgroundImageFix" result="effect1_dropShadow"/>
            <feBlend in="SourceGraphic" in2="effect1_dropShadow" result="shape"/>
        </filter>
    </defs>
</svg>
