<svg xmlns="http://www.w3.org/2000/svg" width="33.625" height="39.906" viewBox="0 0 33.625 39.906">
  <metadata><?xpacket begin="﻿" id="W5M0MpCehiHzreSzNTczkc9d"?>
<x:xmpmeta xmlns:x="adobe:ns:meta/" x:xmptk="Adobe XMP Core 5.6-c142 79.160924, 2017/07/13-01:06:39        ">
   <rdf:RDF xmlns:rdf="http://www.w3.org/1999/02/22-rdf-syntax-ns#">
      <rdf:Description rdf:about=""/>
   </rdf:RDF>
</x:xmpmeta>
                                                                                                    
                                                                                                    
                                                                                                    
                                                                                                    
                                                                                                    
                                                                                                    
                                                                                                    
                                                                                                    
                                                                                                    
                                                                                                    
                                                                                                    
                                                                                                    
                                                                                                    
                                                                                                    
                                                                                                    
                                                                                                    
                                                                                                    
                                                                                                    
                                                                                                    
                                                                                                    
                           
<?xpacket end="w"?></metadata>
<defs>
    <style>
      .cls-1 {
        fill: #fff;
        fill-rule: evenodd;
      }
    </style>
  </defs>
  <path id="Pages_Icon" data-name="Pages Icon" class="cls-1" d="M106.9,540.963a1.169,1.169,0,0,1,.246.348,0.96,0.96,0,0,1,.082.39v26.25a3.151,3.151,0,0,1-3.158,3.158H76.751a3.151,3.151,0,0,1-3.158-3.158V534.359a3.151,3.151,0,0,1,3.158-3.158H96.726a0.944,0.944,0,0,1,.39.082,1.178,1.178,0,0,1,.349.246l9.434,9.434h0Zm-2.215.738-7.957-7.957v6.931a1.052,1.052,0,0,0,1.025,1.026h6.932Zm0.41,26.25V543.834H97.751a3.151,3.151,0,0,1-3.158-3.159v-7.341H76.751a1.05,1.05,0,0,0-1.025,1.025v33.592a1.033,1.033,0,0,0,.308.759,0.983,0.983,0,0,0,.718.307h27.317a0.986,0.986,0,0,0,.718-0.307,1.032,1.032,0,0,0,.307-0.759h0Z" transform="translate(-73.594 -531.188)"/>
</svg>
