<svg xmlns="http://www.w3.org/2000/svg" width="13" height="25" fill="none" viewBox="0 0 13 25">
    <path fill="#00B2FF" d="M12.844 6.357a.705.705 0 0 0-.494-.218c-.058 0-.116.015-.174.03L6.43 7.59 8.91.87A.592.592 0 0 0 8.983.61c0-.334-.29-.61-.653-.61H3.57c-.305 0-.566.189-.639.464L.014 12.438a.57.57 0 0 0 .189.566.71.71 0 0 0 .45.16c.058 0 .116 0 .174-.015l5.892-1.466L3.86 23.41c-.072.305.117.61.436.711.073.015.146.03.203.03a.691.691 0 0 0 .61-.363l7.837-16.793a.576.576 0 0 0-.101-.638z"/>
</svg>
