<svg xmlns="http://www.w3.org/2000/svg" width="138" height="40" viewBox="0 0 138 40">
    <g fill="none" data-name="Logo with title">
        <path fill="#764BA2" d="M22.988 36.275h-8.787a.23.23 0 0 1-.128-.043L3.615 26.408c-.043-.029-.057-.087-.057-.13V13.765c0-.043.014-.1.057-.13l10.458-9.867c.028-.028.086-.043.128-.043h8.773c.043 0 .1.015.128.058l8.33 7.983a.193.193 0 0 0 .228.028l2.872-1.783c.1-.058.114-.202.029-.288L24.83.374a1.336 1.336 0 0 0-.9-.374H13.273c-.329 0-.657.13-.9.36L.443 11.622A1.384 1.384 0 0 0 0 12.657v14.729c0 .388.157.777.443 1.035l11.93 11.22c.243.23.571.359.9.359H23.93c.329 0 .657-.13.9-.374l9.758-9.335c.086-.086.072-.215-.028-.287l-2.872-1.798a.193.193 0 0 0-.229.028l-8.343 7.983c-.029.043-.086.058-.129.058z" data-name="Vector"/>
        <path fill="#3652CE" d="M22.445 4.977h-4.357c-.172 0-.243.201-.129.316l9.43 9.004a.193.193 0 0 0 .228.029l2.886-1.813c.1-.057.114-.2.029-.287l-7.172-6.89a1.357 1.357 0 0 0-.915-.36zM20.702 30.047a1799.7 1799.7 0 0 1-7.372-7.163l-.486-.46c-.043-.03-.057-.087-.057-.13v-4.56c0-.043.014-.1.057-.129l4.872-4.732a.183.183 0 0 0 0-.259L15.36 10.37a.18.18 0 0 0-.257 0L9.5 15.72a.961.961 0 0 0-.3.691v7.192a.92.92 0 0 0 .171.547l-.014.028 7.358 7.12 3.386 3.28.414.388a.212.212 0 0 0 .129.057h1.8c.329 0 .657-.13.9-.36l7.201-6.874c.086-.087.071-.216-.029-.288l-2.871-1.798a.193.193 0 0 0-.229.029l-5.486 5.25a.18.18 0 0 1-.257 0c-.315-.302-.629-.619-.972-.935z" data-name="Vector"/>
        <path fill="#1E2748" d="M21.93 29.63l4.573-4.373c.085-.086.071-.216-.029-.288l-2.872-1.783a.193.193 0 0 0-.228.029l-4.043 3.912a.183.183 0 0 0 0 .259l2.343 2.244a.213.213 0 0 0 .257 0z" data-name="Vector"/>
        <path fill="#1E2748" d="M16.359 5.12a.504.504 0 0 0-.372-.143h-1.286c-.057 0-.1 0-.157.014a1.321 1.321 0 0 0-.743.345l-8.758 8.256a1.407 1.407 0 0 0-.443 1.036v10.759c0 .388.158.776.443 1.035l8.758 8.242c.243.23.572.36.9.36h4.115c.172 0 .243-.202.129-.317L8.144 24.38l.014-.015v-8.471c0-.144.057-.288.171-.389l6.787-6.4a.18.18 0 0 1 .257 0l8 7.666a.193.193 0 0 0 .23.029l2.8-1.74c.1-.058.114-.202.028-.288l-6.358-6.084L16.36 5.12zM46.976 9.982H43.09v20.036h3.886V9.982zM67.578 30.018L59.692 17.72v12.298h-3.886V9.982h3.472l7.886 12.269V9.982h3.886v20.036h-3.472zM92.324 28.105c-1.315 1.323-3.186 1.913-5.258 1.913H79.88V9.982h7.186c2.072 0 3.943.59 5.258 1.913 2.243 2.258 2.014 5.005 2.014 8.026 0 3.006.215 5.94-2.014 8.184zm-2.715-13.39c-.671-.82-1.571-1.238-2.9-1.238H83.78v13.06h2.929c1.343 0 2.243-.417 2.9-1.237.729-.906.843-2.33.843-5.38 0-3.048-.114-4.314-.843-5.206zM102.496 30.018V9.982h13.116v3.495h-9.23v4.69h7.858v3.494h-7.858v4.876h9.23v3.481h-13.116zM133.557 30.018l-3.858-6.976-3.829 6.976h-4.443l6.172-10.27-5.786-9.766h4.415l3.471 6.473 3.5-6.473h4.387l-5.787 9.766L138 30.018h-4.443z" data-name="Vector"/>
    </g>
</svg>
