<svg xmlns="http://www.w3.org/2000/svg" width="24" height="28" fill="none" viewBox="0 0 24 28">
    <path fill="#00B2FF" d="M12 12c-4.703 0-9.422-.844-12-2.656V12c0 2.203 5.375 4 12 4s12-1.797 12-4V9.344C21.422 11.156 16.703 12 12 12zm0 12c-4.703 0-9.422-.844-12-2.656V24c0 2.203 5.375 4 12 4s12-1.797 12-4v-2.656C21.422 23.156 16.703 24 12 24zm0-6c-4.703 0-9.422-.844-12-2.656V18c0 2.203 5.375 4 12 4s12-1.797 12-4v-2.656C21.422 17.156 16.703 18 12 18zm0-18C5.375 0 0 1.797 0 4v2c0 2.203 5.375 4 12 4s12-1.797 12-4V4c0-2.203-5.375-4-12-4z"/>
</svg>
