<svg width="40" height="40" viewBox="0 0 40 40" fill="none" xmlns="http://www.w3.org/2000/svg">
<path d="M1.9623 4.02142C3.04605 4.02142 3.9246 3.12119 3.9246 2.01071C3.9246 0.900225 3.04605 0 1.9623 0C0.878551 0 0 0.900225 0 2.01071C0 3.12119 0.878551 4.02142 1.9623 4.02142Z" transform="translate(17.8114 21.6104)" stroke="white" stroke-width="1.25206" stroke-miterlimit="10"/>
<path d="M3.21326 11.9188C3.21326 10.1092 5.89507 8.23253 6.94163 7.16015C7.85737 6.22182 7.72655 4.68028 6.67999 3.87599C6.02589 3.40683 5.11015 3.40683 4.45605 3.80897C3.86736 4.21111 3.54031 4.7473 3.4749 5.41754C3.4749 6.22182 3.40949 6.55694 2.62457 6.55694H0.662276C-0.122643 6.55694 0.00817649 6.22182 0.00817649 5.41754C0.0735864 3.80897 0.793095 2.26743 2.1667 1.19505C3.99818 -0.279471 6.61458 -0.413518 8.57688 0.926955C11.5857 3.00469 11.8474 7.22718 9.42721 9.64003C8.64229 10.3773 6.54917 11.6507 6.54917 12.5891V13.9295C6.54917 14.3317 6.35294 14.5998 5.96048 14.5998H3.99818C3.60572 14.5998 3.27867 14.3317 3.27867 13.9295V11.9188H3.21326Z" transform="translate(14.5981 5)" stroke="white" stroke-width="1.25206" stroke-miterlimit="10"/>
<path d="M19.623 1.27837e-07H21.5853C23.0243 1.27837e-07 24.2017 1.20642 24.2017 2.68094V12.0643C24.2017 13.5388 23.0243 14.7452 21.5853 14.7452H11.5776L6.99886 19.5709C6.6064 19.973 5.8869 19.7049 5.8869 19.1017V14.7452H2.6164C1.17738 14.7452 0 13.5388 0 12.0643V2.68094C0 1.20642 1.17738 1.27837e-07 2.6164 1.27837e-07H4.5787" transform="translate(8 14.2378)" stroke="white" stroke-width="1.25206" stroke-miterlimit="10" stroke-linejoin="round"/>
</svg>
