<?xml version="1.0" encoding="utf-8"?>
<!-- Generator: Adobe Illustrator 22.0.0, SVG Export Plug-In . SVG Version: 6.00 Build 0)  -->
<svg version="1.1" id="Слой_1" xmlns="http://www.w3.org/2000/svg" xmlns:xlink="http://www.w3.org/1999/xlink" x="0px" y="0px"
	 viewBox="0 0 44 45" style="enable-background:new 0 0 44 45;" xml:space="preserve">
<style type="text/css">
	.st0{fill:#FFFFFF;}
</style>
<g>
	<path class="st0" d="M16.6,13c-0.2,0.2-0.3,0.3-0.4,0.4C16.4,13.3,16.6,13,16.6,13L16.6,13z"/>
	<path class="st0" d="M24.2,14.4c0.6,0.7,0.8,1.5,0.8,2.5c0,0.7-0.2,1.3-0.6,2c-0.2,0.4-0.5,0.7-0.8,1l-1.2,1.2
		c-1.1,1.1-1.9,2.1-2.2,2.9c-0.3,0.9-0.5,2-0.5,3.4h2.6c0-1.2,0.1-2.2,0.4-2.8c0.3-0.6,0.9-1.4,1.8-2.3c1.3-1.2,2.1-2.2,2.6-2.8
		c0.4-0.6,0.6-1.5,0.6-2.5c0-1.7-0.6-3.1-1.7-4.2c-1.2-1.1-2.7-1.7-4.6-1.7c-2.1,0-3.7,0.6-4.9,1.9s-1.8,3-1.8,5.1h2.6
		c0-1.3,0.2-2.2,0.6-2.9c0.6-1.2,1.7-1.8,3.4-1.8C22.7,13.4,23.6,13.7,24.2,14.4L24.2,14.4z"/>
	<path class="st0" d="M44,22C44,9.9,34.1,0,22,0S0,9.9,0,22s9.9,22,22,22S44,34.1,44,22L44,22z M2,22C2,11,11,2,22,2s20,9,20,20
		s-9,20-20,20S2,33,2,22L2,22z"/>
	<rect x="19.7" y="29.8" class="st0" width="2.9" height="3"/>
</g>
</svg>
