<svg xmlns="http://www.w3.org/2000/svg" width="34" height="40" fill="none" viewBox="0 0 34 40">
    <path fill="#fff" d="M22.56 35.599h-8.623a.225.225 0 0 1-.126-.043l-10.264-9.64c-.042-.029-.056-.085-.056-.127v-12.28c0-.043.014-.1.056-.128l10.264-9.683c.028-.028.084-.042.126-.042h8.609c.042 0 .098.014.126.056l8.174 7.834a.19.19 0 0 0 .224.029l2.819-1.75c.098-.057.112-.198.028-.283L24.368.367A1.311 1.311 0 0 0 23.485 0h-10.46c-.322 0-.644.127-.883.353L.435 11.405c-.28.254-.435.621-.435 1.016v14.454c0 .382.154.763.435 1.017l11.707 11.01c.239.226.561.353.883.353h10.46c.323 0 .645-.127.883-.367l9.577-9.161c.084-.085.07-.212-.028-.282l-2.818-1.765a.19.19 0 0 0-.225.028l-8.188 7.834c-.028.043-.084.057-.126.057z"/>
    <path fill="#fff" d="M22.027 4.884H17.75c-.169 0-.239.198-.127.31l9.254 8.837a.19.19 0 0 0 .224.028l2.833-1.779c.098-.056.112-.197.028-.282l-7.039-6.761a1.331 1.331 0 0 0-.897-.353zM20.316 29.487a1766.163 1766.163 0 0 1-7.234-7.03l-.477-.451c-.042-.028-.056-.085-.056-.127v-4.475c0-.042.014-.099.056-.127l4.781-4.644a.18.18 0 0 0 0-.254l-2.313-2.202a.177.177 0 0 0-.253 0l-5.496 5.251a.943.943 0 0 0-.294.678v7.057c0 .198.056.381.168.537l-.014.028 7.22 6.987 3.323 3.218.407.381a.208.208 0 0 0 .126.057h1.767c.322 0 .645-.127.883-.353l7.067-6.747c.084-.085.07-.212-.028-.283l-2.818-1.764a.19.19 0 0 0-.225.028l-5.384 5.152a.177.177 0 0 1-.252 0c-.309-.296-.617-.607-.954-.917z"/>
    <path fill="#fff" d="M21.522 29.077l4.487-4.29c.084-.085.07-.212-.028-.283l-2.818-1.75a.19.19 0 0 0-.225.028l-3.968 3.84a.18.18 0 0 0 0 .253l2.3 2.202a.21.21 0 0 0 .252 0z"/>
    <path fill="#fff" d="M16.054 5.025a.495.495 0 0 0-.365-.141h-1.261c-.057 0-.099 0-.155.014a1.297 1.297 0 0 0-.729.339L4.95 13.339a1.38 1.38 0 0 0-.434 1.016v10.559c0 .38.154.762.434 1.016l8.595 8.088c.239.226.561.353.884.353h4.038c.168 0 .238-.198.126-.31l-10.6-10.136.014-.014v-8.314c0-.14.056-.282.168-.38l6.66-6.282c.07-.07.182-.07.253 0l7.851 7.523a.19.19 0 0 0 .225.029l2.748-1.708c.098-.057.112-.198.028-.283l-6.24-5.97-3.645-3.5z"/>
</svg>
