<svg width="116" height="40" viewBox="0 0 116 40" fill="none" xmlns="http://www.w3.org/2000/svg">
<path d="M22.9881 36.2747H14.2015C14.1586 36.2747 14.1157 36.2603 14.0729 36.2316L3.61466 26.4078C3.5718 26.379 3.55751 26.3215 3.55751 26.2783V13.7648C3.55751 13.7217 3.5718 13.6641 3.61466 13.6354L14.0729 3.76843C14.1015 3.73966 14.1586 3.72528 14.2015 3.72528H22.9738C23.0167 3.72528 23.0738 3.73966 23.1024 3.78281L31.4318 11.7656C31.489 11.8231 31.589 11.8375 31.6604 11.7943L34.5321 10.0108C34.6322 9.95325 34.6464 9.80942 34.5607 9.72312L24.8311 0.373966C24.5883 0.143833 24.2597 0 23.931 0H13.2728C12.9442 0 12.6156 0.12945 12.3727 0.359583L0.442903 11.6217C0.157159 11.8806 0 12.2546 0 12.6573V27.3858C0 27.7742 0.157159 28.1625 0.442903 28.4214L12.3727 39.6404C12.6156 39.8706 12.9442 40 13.2728 40H23.931C24.2597 40 24.5883 39.8705 24.8311 39.626L34.5893 30.2913C34.675 30.205 34.6607 30.0755 34.5607 30.0036L31.689 28.2057C31.6176 28.1625 31.5175 28.1769 31.4604 28.2344L23.1167 36.2172C23.0881 36.2603 23.031 36.2747 22.9881 36.2747Z" transform="scale(0.991453)" fill="white"/>
<path d="M4.54174 -2.19472e-07H0.184146C0.0126995 -2.19472e-07 -0.0587367 0.201366 0.0555609 0.316433L9.48511 9.32039C9.54226 9.37792 9.64227 9.3923 9.7137 9.34915L12.5997 7.53686C12.6997 7.47932 12.714 7.33549 12.6283 7.24919L5.45612 0.359583C5.19895 0.12945 4.88463 -2.19472e-07 4.54174 -2.19472e-07Z" transform="translate(17.7504 4.93403) scale(0.991453)" fill="white"/>
<path d="M11.5012 19.7303C9.12951 17.4434 6.04348 14.4373 4.129 12.5674L3.64323 12.1072C3.60037 12.0784 3.58609 12.0209 3.58609 11.9777V7.4182C3.58609 7.37505 3.60037 7.31751 3.64323 7.28875L8.51517 2.55663C8.5866 2.48472 8.5866 2.36965 8.51517 2.29773L6.15778 0.0539372C6.08634 -0.0179794 5.97205 -0.0179794 5.90061 0.0539372L0.300031 5.40453C0.114298 5.57713 2.18005e-07 5.83603 2.18005e-07 6.09493V13.2866C2.18005e-07 13.488 0.0571486 13.6749 0.171446 13.8332L0.157159 13.8619L7.51506 20.9817L10.9011 24.2611L11.3155 24.6494C11.344 24.6782 11.4012 24.7069 11.444 24.7069H13.2442C13.5728 24.7069 13.9014 24.5775 14.1443 24.3474L21.3451 17.4721C21.4308 17.3858 21.4165 17.2564 21.3165 17.1845L18.4448 15.3866C18.3733 15.3434 18.2733 15.3578 18.2162 15.4153L12.7299 20.6652C12.6585 20.7371 12.5442 20.7371 12.4727 20.6652C12.1584 20.3632 11.8441 20.0467 11.5012 19.7303Z" transform="translate(9.12232 10.2282) scale(0.991453)" fill="white"/>
<path d="M2.65385 6.46881L7.22575 2.09629C7.31147 2.00999 7.29718 1.88054 7.19717 1.80862L4.32545 0.0250889C4.25401 -0.0180611 4.154 -0.00367822 4.09685 0.053855L0.0535774 3.96612C-0.0178586 4.03803 -0.0178586 4.1531 0.0535774 4.22502L2.39668 6.46881C2.46811 6.52635 2.58241 6.52635 2.65385 6.46881Z" transform="translate(19.1122 22.9627) scale(0.991453)" fill="white"/>
<path d="M11.7584 0.143833C11.6584 0.0431497 11.5298 -2.19472e-07 11.3869 -2.19472e-07H10.101C10.0439 -2.19472e-07 10.001 1.09307e-07 9.94389 0.0143834C9.67243 0.0431501 9.40097 0.1726 9.20095 0.359583L0.442903 8.61561C0.157159 8.87451 1.09003e-07 9.26285 1.09003e-07 9.6512V20.4099C1.09003e-07 20.7983 0.157159 21.1866 0.442903 21.4455L9.20095 29.6872C9.44384 29.9173 9.77244 30.0467 10.101 30.0467H14.2158C14.3872 30.0467 14.4586 29.8454 14.3443 29.7303L3.54322 19.4031L3.55751 19.3887V10.9169C3.55751 10.7731 3.61466 10.6293 3.72896 10.5286L10.5154 4.12801C10.5868 4.05609 10.7011 4.05609 10.7725 4.12801L18.7734 11.7943C18.8305 11.8519 18.9305 11.8662 19.002 11.8231L21.8023 10.0827C21.9023 10.0252 21.9166 9.88134 21.8308 9.79504L15.473 3.7109L11.7584 0.143833Z" transform="translate(4.56114 4.93403) scale(0.991453)" fill="white"/>
<path d="M3.88611 0H0V20.036H3.88611V0Z" transform="translate(42.7219 9.89662) scale(0.991453)" fill="white"/>
<path d="M11.7726 20.036L3.88611 7.73822V20.036H8.72021e-07V2.19472e-07H3.47179L11.3583 12.269V2.19472e-07H15.2444V20.036H11.7726Z" transform="translate(55.3288 9.89662) scale(0.991453)" fill="white"/>
<path d="M12.4441 18.123C11.1297 19.4462 9.2581 20.036 7.18646 20.036H-3.48808e-06V2.19472e-07H7.18646C9.2581 2.19472e-07 11.1297 0.589716 12.4441 1.91298C14.6872 4.17116 14.4586 6.91837 14.4586 9.93887C14.4586 12.945 14.6729 15.8792 12.4441 18.123ZM9.72958 4.73211C9.05808 3.91226 8.15799 3.49515 6.82928 3.49515H3.90041V16.5552H6.82928C8.17228 16.5552 9.07237 16.1381 9.72958 15.3182C10.4582 14.4121 10.5725 12.9881 10.5725 9.93887C10.5725 6.88961 10.4582 5.62388 9.72958 4.73211Z" transform="translate(79.197 9.89662) scale(0.991453)" fill="white"/>
<path d="M12.1298 20.036L8.27228 13.0601L4.44332 20.036H3.48808e-06L6.17206 9.76627L0.385751 2.19472e-07H4.8005L8.27228 6.47249L11.7726 2.19472e-07H16.1588L10.3725 9.76627L16.5731 20.036H12.1298Z" transform="translate(99.5685 9.89662) scale(0.991453)" fill="white"/>
</svg>
