<svg xmlns="http://www.w3.org/2000/svg" width="10" height="10" fill="none" viewBox="0 0 10 10">
    <path fill="#FF4040" d="M9.9 4.827l.004-.005c.008-.01.015-.018.02-.028l.005-.008c.005-.01.013-.02.018-.031 0-.003.003-.006.003-.006l.015-.033c0-.003 0-.003.002-.005.005-.01.008-.024.013-.037 0-.002 0-.005.002-.005.003-.013.008-.023.008-.036 0-.006 0-.008.002-.013.003-.01.003-.021.005-.032A.26.26 0 0 0 10 4.544c0-.015 0-.028-.003-.044 0-.01-.002-.02-.005-.031 0-.005 0-.008-.002-.013l-.008-.036c0-.003 0-.006-.002-.006-.003-.013-.008-.023-.013-.036 0-.003 0-.003-.002-.005l-.015-.034c0-.003-.003-.005-.003-.005-.005-.01-.01-.021-.018-.031-.002-.003-.002-.006-.005-.008-.007-.01-.012-.02-.02-.029L9.9 4.261c-.01-.01-.017-.023-.03-.034L7.378 1.66a.424.424 0 0 0-.613 0 .457.457 0 0 0 0 .632L8.52 4.1H3.366a.44.44 0 0 0-.433.444.44.44 0 0 0 .433.447h5.155l-1.74 1.795a.457.457 0 0 0 0 .632.425.425 0 0 0 .61 0l2.475-2.554a.493.493 0 0 1 .033-.037z"/>
    <path fill="#FF4040" d="M2.345.891h1.407c.239 0 .433-.2.433-.444A.44.44 0 0 0 3.752 0H2.345C1.053 0 0 1.086 0 2.419v4.253c0 1.333 1.053 2.419 2.345 2.419H3.7c.24 0 .433-.2.433-.444A.44.44 0 0 0 3.7 8.2H2.345c-.816 0-1.48-.686-1.48-1.528V2.42C.866 1.574 1.528.89 2.344.89z"/>
</svg>
