<?xml version="1.0" encoding="utf-8"?>
<!-- Generator: Adobe Illustrator 22.0.0, SVG Export Plug-In . SVG Version: 6.00 Build 0)  -->
<svg version="1.1" id="Слой_1" xmlns="http://www.w3.org/2000/svg" xmlns:xlink="http://www.w3.org/1999/xlink" x="0px" y="0px"
	 viewBox="0 0 40 40" style="enable-background:new 0 0 40 40;" xml:space="preserve">
<style type="text/css">
	.st0{fill:#FFFFFF;}
</style>
<g>
	<path class="st0" d="M29.5,10.9l8.4,2.2L40,4.7l-1.6-0.4L37,9.5C33.5,3.8,27.2,0,20,0C9,0,0,9,0,20s9,20,20,20
		c7.4,0,13.8-4,17.3-9.9l-1.4-0.8c-3.2,5.4-9.1,9.1-15.8,9.1C9.9,38.4,1.6,30.1,1.6,20S9.9,1.6,20,1.6c6.8,0,12.7,3.7,15.9,9.2
		l-6-1.6L29.5,10.9z M29.5,10.9"/>
	<path class="st0" d="M20.9,28.9v-1.5c1.4-0.1,2.5-0.5,3.4-1.3c0.8-0.8,1.3-1.8,1.3-3c0-1.3-0.3-2.2-1.1-2.8
		c-0.8-0.7-1.9-1.2-3.5-1.5h-0.1v-3.9c1.1,0.2,2,0.5,3,1.2l1.4-1.9c-1.4-0.9-2.8-1.4-4.3-1.5v-1h-1.3v1c-1.3,0.1-2.4,0.5-3.2,1.3
		c-0.8,0.8-1.3,1.8-1.3,3c0,1.2,0.3,2.1,1.1,2.7c0.7,0.6,1.9,1.1,3.4,1.4v4c-1.2-0.2-2.4-0.8-3.6-1.8l-1.5,1.8
		c1.5,1.4,3.2,2.1,5.1,2.3v1.5H20.9z M21,21.5c0.8,0.3,1.4,0.5,1.7,0.8c0.3,0.3,0.4,0.7,0.4,1.2s-0.2,0.8-0.6,1.2
		c-0.4,0.3-0.9,0.5-1.5,0.6V21.5z M18,17.8c-0.3-0.3-0.4-0.7-0.4-1.1c0-0.5,0.2-0.8,0.5-1.2c0.4-0.3,0.8-0.5,1.5-0.6v3.7
		C18.8,18.3,18.2,18.1,18,17.8L18,17.8z M18,17.8"/>
</g>
</svg>
