<svg xmlns="http://www.w3.org/2000/svg" width="50" height="50" viewBox="0 0 50 50">
    <g fill="none">
        <circle cx="25" cy="25" r="25" fill="#8560FD"/>
        <path fill="#fff" d="M36.667 16.578h-5.834v-1.193C30.833 14.07 29.787 13 28.5 13h-7c-1.287 0-2.333 1.07-2.333 2.385v1.193h-5.834c-1.287 0-2.333 1.07-2.333 2.385v15.504c0 1.315 1.046 2.385 2.333 2.385h23.334c1.287 0 2.333-1.07 2.333-2.385V18.963c0-1.315-1.046-2.385-2.333-2.385zm-16.334-1.193c0-.657.524-1.192 1.167-1.192h7c.643 0 1.167.535 1.167 1.192v1.193h-9.334v-1.193zm17.5 19.082c0 .657-.523 1.192-1.166 1.192H13.333c-.643 0-1.166-.535-1.166-1.192v-8.68c.344.205.74.332 1.166.332h9.334v1.789c0 .33.26.596.583.596h3.5a.59.59 0 0 0 .583-.596v-1.79h9.334a2.27 2.27 0 0 0 1.166-.331v8.68zm-14-7.156v-2.385h2.334v2.385h-2.334zm14-3.578c0 .658-.523 1.193-1.166 1.193h-9.334v-.596a.59.59 0 0 0-.583-.597h-3.5a.59.59 0 0 0-.583.597v.596h-9.334c-.643 0-1.166-.535-1.166-1.193v-4.77c0-.657.523-1.193 1.166-1.193h23.334c.643 0 1.166.536 1.166 1.193v4.77z"/>
    </g>
</svg>
