<svg width="40" height="40" viewBox="0 0 40 40" fill="none" xmlns="http://www.w3.org/2000/svg">
<path d="M25.8823 3.57783H20V2.3852C20 1.06975 18.9447 2.04722e-08 17.647 2.04722e-08H10.5882C9.29055 2.04722e-08 8.23526 1.0697 8.23526 2.3852V3.57778H2.35296C1.05524 3.57783 0 4.64753 0 5.96298V21.4667C0 22.7821 1.05524 23.8519 2.35296 23.8519H25.8823C27.18 23.8519 28.2353 22.7822 28.2353 21.4667V5.96298C28.2352 4.64753 27.18 3.57783 25.8823 3.57783ZM9.41177 2.3852C9.41177 1.72779 9.93969 1.19263 10.5882 1.19263H17.647C18.2956 1.19263 18.8235 1.72779 18.8235 2.3852V3.57778H9.41177V2.3852ZM27.0588 21.4667C27.0588 22.1241 26.5309 22.6593 25.8823 22.6593H2.35296C1.70443 22.6593 1.17651 22.1241 1.17651 21.4667V12.7869C1.52399 12.9922 1.92248 13.1186 2.35296 13.1186H11.7647V14.9075C11.7647 15.2371 12.0278 15.5038 12.353 15.5038H15.8824C16.2075 15.5038 16.4706 15.2371 16.4706 14.9075V13.1186H25.8824C26.3129 13.1186 26.7114 12.9923 27.0588 12.7869V21.4667H27.0588ZM12.9412 14.3112V11.926H15.2941V14.3112H12.9412ZM27.0588 10.7334C27.0588 11.3908 26.5309 11.926 25.8823 11.926H16.4706V11.3296C16.4706 11 16.2075 10.7333 15.8823 10.7333H12.3529C12.0278 10.7333 11.7647 11 11.7647 11.3296V11.926H2.35296C1.70443 11.926 1.17651 11.3908 1.17651 10.7334V5.96303C1.17651 5.30562 1.70443 4.77046 2.35296 4.77046H25.8823C26.5309 4.77046 27.0588 5.30562 27.0588 5.96303V10.7334Z" transform="translate(6 8)" fill="#9BA7D1"/>
</svg>
