<svg xmlns="http://www.w3.org/2000/svg" viewBox="0 0 36 36"><defs><style>.cls-1,.cls-2{fill:#fff;}.cls-1{opacity:0.5;}</style></defs><title>star 2</title><g id="Слой_2" data-name="Слой 2"><g id="Слой_1-2" data-name="Слой 1"><path class="cls-1" d="M18,.5A17.5,17.5,0,1,1,.5,18,17.52,17.52,0,0,1,18,.5M18,0A18,18,0,1,0,36,18,18,18,0,0,0,18,0Z"/><path class="cls-2" d="M28.52,17a1.54,1.54,0,0,0,.4-1.61,1.57,1.57,0,0,0-1.27-1.08l-5.33-.77a.69.69,0,0,1-.52-.38L19.42,8.34a1.59,1.59,0,0,0-2.84,0L14.2,13.17a.7.7,0,0,1-.52.38l-5.33.77A1.56,1.56,0,0,0,7.08,15.4,1.54,1.54,0,0,0,7.48,17l3.85,3.76a.68.68,0,0,1,.2.62l-.91,5.3a1.58,1.58,0,0,0,2.29,1.67l4.77-2.51a.72.72,0,0,1,.64,0l4.77,2.51a1.58,1.58,0,0,0,2.29-1.67l-.91-5.3a.68.68,0,0,1,.2-.62ZM23.6,21.54l.91,5.3a.7.7,0,0,1-1,.74l-4.77-2.51a1.55,1.55,0,0,0-.73-.18,1.65,1.65,0,0,0-.74.18L12.5,27.58a.7.7,0,0,1-1-.74l.91-5.3a1.58,1.58,0,0,0-.45-1.4L8.09,16.38a.67.67,0,0,1-.17-.71.68.68,0,0,1,.56-.48l5.33-.77A1.57,1.57,0,0,0,15,13.56l2.38-4.83A.71.71,0,0,1,18,8.34a.68.68,0,0,1,.62.39L21,13.56a1.57,1.57,0,0,0,1.19.86l5.32.77a.68.68,0,0,1,.56.48.67.67,0,0,1-.17.71l-3.86,3.76a1.57,1.57,0,0,0-.45,1.4Z"/></g></g></svg>