<svg xmlns="http://www.w3.org/2000/svg" viewBox="0 0 10.45 10"><defs><style>.cls-1{fill:#5b57a3;}</style></defs><title>star</title><g id="Слой_2" data-name="Слой 2"><g id="Layer_1" data-name="Layer 1"><path class="cls-1" d="M4.67.35,3.4,2.93.55,3.34a.63.63,0,0,0-.41.23A.76.76,0,0,0,0,4a.6.6,0,0,0,.2.41l2.07,2L1.78,9.28a.61.61,0,0,0,.45.7.6.6,0,0,0,.45-.06L5.23,8.59,7.79,9.92a.6.6,0,0,0,.45.06.51.51,0,0,0,.35-.27.56.56,0,0,0,.1-.43L8.2,6.43l2.07-2A.54.54,0,0,0,10.45,4a.59.59,0,0,0-.14-.43.56.56,0,0,0-.39-.23L7.07,2.93,5.8.35A.59.59,0,0,0,5.45,0,.69.69,0,0,0,5,0,.62.62,0,0,0,4.67.35Z"/></g></g></svg>