<?xml version="1.0" encoding="utf-8"?>
<!-- Generator: Adobe Illustrator 22.0.0, SVG Export Plug-In . SVG Version: 6.00 Build 0)  -->
<svg version="1.1" id="Слой_1" xmlns="http://www.w3.org/2000/svg" xmlns:xlink="http://www.w3.org/1999/xlink" x="0px" y="0px"
	 viewBox="0 0 10.4 10" style="enable-background:new 0 0 10.4 10;" xml:space="preserve">
<style type="text/css">
	.st0{fill:#B0A5FF;}
</style>
<title>star</title>
<g id="Слой_2_1_">
	<g id="Layer_1">
		<path class="st0" d="M4.7,0.3L3.4,2.9L0.6,3.3c-0.2,0-0.3,0.1-0.4,0.2C0.1,3.7,0,3.8,0,4c0,0.2,0.1,0.3,0.2,0.4l2.1,2L1.8,9.3
			C1.7,9.6,1.9,9.9,2.2,10c0.2,0,0.3,0,0.5-0.1l2.5-1.3l2.6,1.3C7.9,10,8.1,10,8.2,10c0.2,0,0.3-0.1,0.4-0.3
			c0.1-0.1,0.1-0.3,0.1-0.4L8.2,6.4l2.1-2c0.1-0.1,0.2-0.3,0.2-0.4c0-0.2,0-0.3-0.1-0.4c-0.1-0.1-0.2-0.2-0.4-0.2L7.1,2.9L5.8,0.3
			C5.7,0.2,5.6,0.1,5.4,0C5.3-0.1,5.1-0.1,5,0C4.8,0.1,4.7,0.2,4.7,0.3z"/>
	</g>
</g>
</svg>
