<svg xmlns="http://www.w3.org/2000/svg" viewBox="0 0 10.95 10.5"><defs><style>.cls-1{fill:#5b57a3;}</style></defs><title>star_empty</title><g id="Слой_2" data-name="Слой 2"><g id="Layer_1" data-name="Layer 1"><path class="cls-1" d="M2.63,10.5l-.21,0a.82.82,0,0,1-.53-.38.87.87,0,0,1-.11-.61l.47-2.72-2-1.92A.9.9,0,0,1,0,4.27a1,1,0,0,1,.18-.59.92.92,0,0,1,.58-.34L3.48,3,4.69.49A.87.87,0,0,1,5.16.05a.94.94,0,0,1,.62,0,.82.82,0,0,1,.49.44L7.49,3l2.72.39a.87.87,0,0,1,.56.34.83.83,0,0,1,.18.59.82.82,0,0,1-.25.57l-2,1.92.47,2.72a.85.85,0,0,1-.14.62.77.77,0,0,1-.5.37.82.82,0,0,1-.63-.08L5.48,9.12,3,10.39A.87.87,0,0,1,2.63,10.5ZM5.14.71,3.81,3.41l-3,.43A.38.38,0,0,0,.58,4a.48.48,0,0,0-.08.27.39.39,0,0,0,.12.24l2.16,2.1-.51,3a.38.38,0,0,0,0,.26.37.37,0,0,0,.22.16.37.37,0,0,0,.27,0L5.48,8.56,8.16,10a.36.36,0,0,0,.27,0,.29.29,0,0,0,.19-.15.32.32,0,0,0,.07-.27l-.51-3,2.17-2.11a.29.29,0,0,0,.1-.23A.36.36,0,0,0,10.37,4a.3.3,0,0,0-.24-.14l-3-.43L5.83.71A.37.37,0,0,0,5.62.53a.37.37,0,0,0-.29,0S5.21.58,5.14.71Z"/></g></g></svg>