<?xml version="1.0" encoding="utf-8"?>
<!-- Generator: Adobe Illustrator 22.0.0, SVG Export Plug-In . SVG Version: 6.00 Build 0)  -->
<svg version="1.1" id="Слой_1" xmlns="http://www.w3.org/2000/svg" xmlns:xlink="http://www.w3.org/1999/xlink" x="0px" y="0px"
	 viewBox="0 0 10.9 10.5" style="enable-background:new 0 0 10.9 10.5;" xml:space="preserve">
<style type="text/css">
	.st0{fill:#B0A5FF;}
</style>
<title>star_empty</title>
<g id="Слой_2_1_">
	<g id="Layer_1">
		<path class="st0" d="M2.6,10.5H2.4c-0.2,0-0.4-0.2-0.5-0.4C1.8,9.9,1.7,9.7,1.8,9.5l0.5-2.7l-2-1.9C0.1,4.7,0,4.5,0,4.3
			c0-0.2,0.1-0.4,0.2-0.6c0.1-0.2,0.4-0.3,0.6-0.3L3.5,3l1.2-2.5C4.8,0.3,5,0.1,5.2,0.1C5.4,0,5.6,0,5.8,0.1C6,0.1,6.2,0.3,6.3,0.5
			L7.5,3l2.7,0.4c0.2,0,0.4,0.2,0.6,0.3C10.9,3.9,11,4.1,11,4.3c0,0.2-0.1,0.4-0.3,0.6l-2,1.9l0.5,2.7c0,0.2,0,0.4-0.1,0.6
			c-0.1,0.2-0.3,0.3-0.5,0.4c-0.2,0.1-0.4,0-0.6-0.1L5.5,9.1L3,10.4C2.9,10.5,2.8,10.5,2.6,10.5z M5.1,0.7L3.8,3.4l-3,0.4
			C0.7,3.9,0.6,3.9,0.6,4C0.5,4.1,0.5,4.2,0.5,4.3c0,0.1,0.1,0.2,0.1,0.2l2.2,2.1l-0.5,3c0,0.1,0,0.2,0,0.3C2.3,9.9,2.4,10,2.5,10
			c0.1,0,0.2,0,0.3,0l2.7-1.5L8.2,10c0.1,0,0.2,0,0.3,0c0.1,0,0.2-0.1,0.2-0.1c0.1-0.1,0.1-0.2,0.1-0.3l-0.5-3l2.2-2.1
			c0.1-0.1,0.1-0.1,0.1-0.2c0-0.1,0-0.2-0.1-0.2c-0.1-0.1-0.1-0.1-0.2-0.1l-3-0.4L5.8,0.7c0-0.1-0.1-0.1-0.2-0.2c-0.1,0-0.2,0-0.3,0
			C5.3,0.5,5.2,0.6,5.1,0.7z"/>
	</g>
</g>
</svg>
