<svg xmlns="http://www.w3.org/2000/svg" width="39.907" height="33.594" viewBox="0 0 39.907 33.594">
  <metadata><?xpacket begin="﻿" id="W5M0MpCehiHzreSzNTczkc9d"?>
<x:xmpmeta xmlns:x="adobe:ns:meta/" x:xmptk="Adobe XMP Core 5.6-c142 79.160924, 2017/07/13-01:06:39        ">
   <rdf:RDF xmlns:rdf="http://www.w3.org/1999/02/22-rdf-syntax-ns#">
      <rdf:Description rdf:about=""/>
   </rdf:RDF>
</x:xmpmeta>
                                                                                                    
                                                                                                    
                                                                                                    
                                                                                                    
                                                                                                    
                                                                                                    
                                                                                                    
                                                                                                    
                                                                                                    
                                                                                                    
                                                                                                    
                                                                                                    
                                                                                                    
                                                                                                    
                                                                                                    
                                                                                                    
                                                                                                    
                                                                                                    
                                                                                                    
                                                                                                    
                           
<?xpacket end="w"?></metadata>
<defs>
    <style>
      .cls-1 {
        fill: #fff;
        fill-rule: evenodd;
      }
    </style>
  </defs>
  <path id="Monitor_Icon" data-name="Monitor Icon" class="cls-1" d="M107.16,174.334a3.045,3.045,0,0,1,2.235.922,3,3,0,0,1,.923,2.195v21a3.151,3.151,0,0,1-3.158,3.158H91.41v4.225h7.342a1.031,1.031,0,0,1,.759.307,0.985,0.985,0,0,1,.308.718,1.05,1.05,0,0,1-1.066,1.066H81.976a1.05,1.05,0,0,1-1.066-1.066,0.985,0.985,0,0,1,.308-0.718,1.03,1.03,0,0,1,.759-0.307h7.342v-4.225H73.568a3.151,3.151,0,0,1-3.158-3.158v-21a3,3,0,0,1,.923-2.195,3.044,3.044,0,0,1,2.235-.922H107.16Zm1.066,24.117v-21a0.986,0.986,0,0,0-.308-0.718,1.031,1.031,0,0,0-.758-0.308H73.568a1.031,1.031,0,0,0-.759.308,0.985,0.985,0,0,0-.308.718v21a1.05,1.05,0,0,0,1.066,1.066H107.16a1.05,1.05,0,0,0,1.066-1.066h0Z" transform="translate(-70.406 -174.344)"/>
</svg>
