<svg xmlns="http://www.w3.org/2000/svg" width="50" height="50" viewBox="0 0 50 50">
    <g fill="none">
        <circle cx="25" cy="25" r="25" fill="#8560FD"/>
        <path fill="#fff" d="M38.388 17a3.616 3.616 0 0 0-3.613 3.612c0 .724.22 1.402.584 1.966l-3.898 3.898a3.562 3.562 0 0 0-1.965-.584 3.62 3.62 0 0 0-2.032.624l-3.938-3.938a3.562 3.562 0 0 0 .584-1.965A3.616 3.616 0 0 0 20.498 17a3.616 3.616 0 0 0-3.613 3.612c0 .724.22 1.402.585 1.966l-3.892 3.898a3.562 3.562 0 0 0-1.965-.584A3.616 3.616 0 0 0 8 29.504a3.616 3.616 0 0 0 3.613 3.613 3.616 3.616 0 0 0 3.612-3.613c0-.723-.22-1.4-.584-1.965l3.898-3.898a3.562 3.562 0 0 0 1.965.584c.724 0 1.402-.22 1.966-.584l3.964 3.964a3.588 3.588 0 0 0-.544 1.906 3.616 3.616 0 0 0 3.612 3.612 3.616 3.616 0 0 0 3.613-3.612c0-.724-.22-1.401-.584-1.966l3.89-3.911a3.562 3.562 0 0 0 1.967.584A3.616 3.616 0 0 0 42 20.606 3.615 3.615 0 0 0 38.387 17zM11.613 31.623a2.12 2.12 0 0 1-2.119-2.119 2.12 2.12 0 0 1 2.119-2.118 2.12 2.12 0 0 1 2.118 2.118 2.124 2.124 0 0 1-2.118 2.119zm8.891-8.892a2.12 2.12 0 0 1-2.118-2.119 2.12 2.12 0 0 1 2.118-2.118 2.12 2.12 0 0 1 2.119 2.119 2.12 2.12 0 0 1-2.119 2.118zm8.992 8.892a2.12 2.12 0 0 1-2.119-2.119 2.12 2.12 0 0 1 2.119-2.118 2.12 2.12 0 0 1 2.118 2.118 2.12 2.12 0 0 1-2.118 2.119zm8.892-8.892a2.12 2.12 0 0 1-2.119-2.119 2.12 2.12 0 0 1 2.119-2.118 2.12 2.12 0 0 1 2.118 2.119 2.12 2.12 0 0 1-2.119 2.118z"/>
        <path fill="#fff" d="M19.74 26.164a.745.745 0 0 0-1.056 0l-1.52 1.52a.745.745 0 0 0 1.049 1.056l1.52-1.52a.74.74 0 0 0 .007-1.056zM32.835 21.403a.745.745 0 0 0-1.056 0l-1.52 1.52a.745.745 0 0 0 1.049 1.056l1.527-1.527a.75.75 0 0 0 0-1.05z"/>
    </g>
</svg>
