<svg width="40" height="40" viewBox="0 0 40 40" fill="none" xmlns="http://www.w3.org/2000/svg">
<path d="M30.6429 0C28.6339 0 27 1.62031 27 3.6125C27 4.33633 27.221 5.01367 27.5893 5.57812L23.6585 9.47617C23.0893 9.10429 22.4062 8.89179 21.6763 8.89179C20.9196 8.89179 20.2098 9.12422 19.6272 9.51601L15.6562 5.57812C16.0312 5.01367 16.2455 4.33633 16.2455 3.6125C16.2455 1.62031 14.6116 0 12.6027 0C10.5937 0 8.95982 1.62031 8.95982 3.6125C8.95982 4.33633 9.1808 5.01367 9.54911 5.57812L5.625 9.47617C5.0558 9.10429 4.37277 8.89179 3.64286 8.89179C1.63393 8.89179 0 10.5121 0 12.5043C0 14.4965 1.63393 16.1168 3.64286 16.1168C5.65179 16.1168 7.28571 14.4965 7.28571 12.5043C7.28571 11.7805 7.06473 11.1031 6.69643 10.5387L10.6272 6.64062C11.1964 7.0125 11.8795 7.225 12.6094 7.225C13.3393 7.225 14.0223 7.00586 14.5915 6.64062L18.5893 10.6051C18.2411 11.1562 18.0402 11.8137 18.0402 12.5109C18.0402 14.5031 19.6741 16.1234 21.683 16.1234C23.692 16.1234 25.3259 14.5031 25.3259 12.5109C25.3259 11.7871 25.1049 11.1098 24.7366 10.5453L28.6607 6.63398C29.2299 7.00586 29.9129 7.21836 30.6429 7.21836C32.6518 7.21836 34.2857 5.59804 34.2857 3.60586C34.2857 1.62031 32.6518 0 30.6429 0ZM3.64286 14.6227C2.46429 14.6227 1.5067 13.673 1.5067 12.5043C1.5067 11.3355 2.46429 10.3859 3.64286 10.3859C4.82143 10.3859 5.77902 11.3355 5.77902 12.5043C5.77902 13.673 4.81473 14.6227 3.64286 14.6227ZM12.6094 5.73086C11.4308 5.73086 10.4732 4.78125 10.4732 3.6125C10.4732 2.44375 11.4308 1.49414 12.6094 1.49414C13.7879 1.49414 14.7455 2.44375 14.7455 3.6125C14.7455 4.78125 13.7879 5.73086 12.6094 5.73086ZM21.6763 14.6227C20.4978 14.6227 19.5402 13.673 19.5402 12.5043C19.5402 11.3355 20.4978 10.3859 21.6763 10.3859C22.8549 10.3859 23.8125 11.3355 23.8125 12.5043C23.8125 13.673 22.8549 14.6227 21.6763 14.6227ZM30.6429 5.73086C29.4643 5.73086 28.5067 4.78125 28.5067 3.6125C28.5067 2.44375 29.4643 1.49414 30.6429 1.49414C31.8214 1.49414 32.779 2.44375 32.779 3.6125C32.779 4.78125 31.8214 5.73086 30.6429 5.73086Z" transform="translate(3 12)" fill="white"/>
<path d="M2.8192 0.219141C2.52455 -0.0730469 2.04911 -0.0730469 1.75446 0.219141L0.220982 1.73984C-0.0736607 2.03203 -0.0736607 2.50352 0.220982 2.7957C0.368303 2.9418 0.562499 3.01484 0.749999 3.01484C0.937499 3.01484 1.13839 2.9418 1.27902 2.7957L2.8125 1.275C3.11384 0.982812 3.11384 0.511328 2.8192 0.219141Z" transform="translate(12.0197 20.9446)" fill="white"/>
<path d="M2.8192 0.219141C2.52455 -0.0730467 2.04911 -0.0730467 1.75446 0.219141L0.220983 1.73984C-0.0736599 2.03203 -0.0736599 2.50352 0.220983 2.7957C0.368304 2.9418 0.5625 3.01484 0.75 3.01484C0.944196 3.01484 1.13839 2.9418 1.27902 2.7957L2.8192 1.26836C3.10714 0.982813 3.10714 0.504688 2.8192 0.219141Z" transform="translate(25.2246 16.1836)" fill="white"/>
</svg>
