<svg xmlns="http://www.w3.org/2000/svg" width="24" height="24" fill="none" viewBox="0 0 24 24">
    <path fill="#FF4040" d="M17.719 17.203A5.954 5.954 0 0 0 12 13a5.954 5.954 0 0 0-5.719 4.203c-.172.531.125 1.078.657 1.25.515.172 1.078-.125 1.25-.656A3.976 3.976 0 0 1 12 15a3.976 3.976 0 0 1 3.813 2.797c.171.531.734.828 1.265.656a.993.993 0 0 0 .64-1.25zM10 8c0-1.11-.89-2-2-2-1.11 0-2 .89-2 2 0 1.11.89 2 2 2 1.11 0 2-.89 2-2zm8 0c0-1.11-.89-2-2-2-1.11 0-2 .89-2 2 0 1.11.89 2 2 2 1.11 0 2-.89 2-2zm4 4c0 5.516-4.484 10-10 10S2 17.516 2 12 6.484 2 12 2s10 4.484 10 10zm2 0c0-6.625-5.375-12-12-12S0 5.375 0 12s5.375 12 12 12 12-5.375 12-12z"/>
</svg>
