<svg xmlns="http://www.w3.org/2000/svg" width="15" height="15" viewBox="0 0 15 15">
    <path fill="#666" d="M15 7.5c0 1.35-.343 2.6-1.028 3.75a7.345 7.345 0 0 1-2.722 2.722A7.19 7.19 0 0 1 7.5 15a7.19 7.19 0 0 1-3.75-1.028A7.578 7.578 0 0 1 .998 11.25 7.355 7.355 0 0 1 0 7.5c0-1.35.333-2.6.998-3.75A7.578 7.578 0 0 1 3.75 1.028 7.19 7.19 0 0 1 7.5 0c1.35 0 2.6.343 3.75 1.028a7.345 7.345 0 0 1 2.722 2.722A7.19 7.19 0 0 1 15 7.5zm-4.294-1.058c.08-.464-.04-.867-.363-1.21-.283-.262-.706-.494-1.27-.696l.332-1.36-.816-.182-.333 1.3-.665-.15.332-1.332-.816-.211-.333 1.36-1.663-.392-.212.877.303.06c.201.04.292.06.272.06.282.081.413.243.393.484l-.393 1.543.09.03-.09-.03-.545 2.177c-.06.162-.181.222-.362.182 0 .02-.202-.03-.605-.152l-.393.938 1.633.423-.333 1.361.816.212.363-1.33.635.15-.332 1.361.816.182.363-1.361c.766.161 1.371.171 1.815.03.504-.161.867-.534 1.088-1.119.303-.907.05-1.572-.756-1.996.585-.14.928-.544 1.029-1.21zM8.83 9.072c-.101.404-.444.605-1.029.605-.302 0-.746-.08-1.33-.241l-.182-.03.454-1.815.212.03c.584.141 1.018.282 1.3.423.484.262.675.605.575 1.029zm.272-2.66c-.101.362-.393.554-.877.574-.262 0-.635-.06-1.12-.182l-.15-.06.423-1.633.151.03c.504.121.867.242 1.089.363.403.222.564.524.484.907z" data-name=""/>
</svg>
