<svg width="40" height="40" viewBox="0 0 40 40" fill="none" xmlns="http://www.w3.org/2000/svg">
<path d="M5.07574 6.73787H2.9966C2.13277 6.73787 1.42979 6.03489 1.42979 5.17106C1.42979 4.30723 2.13277 3.60425 2.9966 3.60425H6.66638C7.05957 3.60425 7.38128 3.28255 7.38128 2.88936C7.38128 2.49617 7.05957 2.17447 6.66638 2.17447H4.75404V0.714894C4.75404 0.321702 4.43234 9.09034e-08 4.03915 9.09034e-08C3.64596 9.09034e-08 3.32426 0.321702 3.32426 0.714894V2.17447H2.9966C1.34638 2.17447 1.81807e-07 3.52085 1.81807e-07 5.17106C1.81807e-07 6.82128 1.34638 8.16766 2.9966 8.16766H5.07574C5.93957 8.16766 6.64255 8.87064 6.64255 9.73447C6.64255 10.5983 5.93957 11.3013 5.07574 11.3013H1.34043C0.947234 11.3013 0.625532 11.623 0.625532 12.0162C0.625532 12.4094 0.947234 12.7311 1.34043 12.7311H3.3183V14.2204C3.3183 14.6136 3.64 14.9353 4.03319 14.9353C4.42638 14.9353 4.74809 14.6136 4.74809 14.2204V12.7311H5.09362C5.09957 12.7311 5.10553 12.7311 5.11149 12.7311C6.74383 12.7072 8.06638 11.3728 8.06638 9.73447C8.06638 8.0783 6.72596 6.73787 5.07574 6.73787Z" transform="translate(15.9668 12.5474)" fill="#9BA7D1"/>
<path d="M23.9013 4.09872C21.2562 1.45362 17.7413 0 14 0C10.2587 0 6.74383 1.45362 4.09872 4.09872C1.45362 6.74383 0 10.2587 0 14C0 17.7413 1.45362 21.2562 4.09872 23.9013C6.74383 26.5464 10.2587 28 14 28C17.7413 28 21.2562 26.5464 23.9013 23.9013C26.5464 21.2562 28 17.7413 28 14C28 10.2587 26.5464 6.74383 23.9013 4.09872ZM14 26.5702C7.07149 26.5702 1.42979 20.9285 1.42979 14C1.42979 7.07149 7.07149 1.42979 14 1.42979C20.9285 1.42979 26.5702 7.07149 26.5702 14C26.5702 20.9285 20.9285 26.5702 14 26.5702Z" transform="translate(6 6)" fill="#9BA7D1"/>
</svg>
