<svg xmlns="http://www.w3.org/2000/svg" viewBox="0 0 80 16"><defs><style>.cls-1{fill:#fff;}</style></defs><title>binance_icon_white</title><g id="Слой_2" data-name="Слой 2"><g id="Layer_1" data-name="Layer 1"><path class="cls-1" d="M4.89,6.72,8,3.62l3.11,3.1,1.81-1.8L8,0,3.09,4.92Z"/><path class="cls-1" d="M3.62,8,1.81,6.19,0,8,1.81,9.81Z"/><path class="cls-1" d="M4.89,9.27,8,12.38l3.11-3.11,1.81,1.81h0L8,16,3.08,11.08h0Z"/><path class="cls-1" d="M14.19,9.81,16,8,14.19,6.19,12.38,8Z"/><path class="cls-1" d="M9.83,8h0L8,6.16,6.64,7.52h0l-.15.15L6.17,8h0L8,9.83,9.83,8h0Z"/><path class="cls-1" d="M18.82,3.88h3.93A3,3,0,0,1,25,4.63a2,2,0,0,1,.58,1.44v0a2.11,2.11,0,0,1-.09.64,1.67,1.67,0,0,1-.25.5,2.18,2.18,0,0,1-.34.4,3,3,0,0,1-.43.29,2.86,2.86,0,0,1,1.16.76A1.92,1.92,0,0,1,26,10v0a2.25,2.25,0,0,1-.23,1,1.84,1.84,0,0,1-.64.72,2.86,2.86,0,0,1-1,.44,5.29,5.29,0,0,1-1.3.14h-4Zm3.54,3.43a2,2,0,0,0,1-.21.74.74,0,0,0,.36-.69v0a.75.75,0,0,0-.31-.65,1.55,1.55,0,0,0-.91-.22H20.64V7.31Zm.5,3.42a1.81,1.81,0,0,0,1-.23.77.77,0,0,0,.35-.69v0a.8.8,0,0,0-.33-.67,1.74,1.74,0,0,0-1.06-.25H20.64v1.87Z"/><path class="cls-1" d="M28.36,3.88h1.87v8.49H28.36Z"/><path class="cls-1" d="M33.05,3.88h1.73l4,5.22V3.88h1.84v8.49H39L34.9,7v5.4H33.05Z"/><path class="cls-1" d="M46.25,3.82H48l3.63,8.55h-2l-.77-1.91H45.29l-.78,1.91h-1.9Zm2,5L47.08,6.06,46,8.81Z"/><path class="cls-1" d="M53.62,3.88h1.72l4,5.22V3.88h1.85v8.49H59.57L55.46,7v5.4H53.62Z"/><path class="cls-1" d="M67.88,12.51a4.5,4.5,0,0,1-1.74-.34,4.42,4.42,0,0,1-1.38-.93,4.24,4.24,0,0,1-.91-1.39,4.42,4.42,0,0,1-.33-1.71v0a4.33,4.33,0,0,1,.33-1.7A4.4,4.4,0,0,1,64.76,5a4.22,4.22,0,0,1,1.39-.94A4.38,4.38,0,0,1,68,3.73a5.22,5.22,0,0,1,1.08.1,4.24,4.24,0,0,1,.89.26,3.55,3.55,0,0,1,.74.42,4,4,0,0,1,.63.53L70.1,6.41a4.27,4.27,0,0,0-1-.7,2.57,2.57,0,0,0-1.16-.26,2.3,2.3,0,0,0-1,.21,2.14,2.14,0,0,0-.79.57,2.71,2.71,0,0,0-.5.84,2.89,2.89,0,0,0-.19,1v0a2.94,2.94,0,0,0,.19,1,2.89,2.89,0,0,0,.5.85,2.31,2.31,0,0,0,.77.57,2.39,2.39,0,0,0,1,.21,2.55,2.55,0,0,0,1.23-.26,4.62,4.62,0,0,0,1-.73L71.35,11a6.68,6.68,0,0,1-.68.63,3.56,3.56,0,0,1-.77.48,4,4,0,0,1-.91.3A5.35,5.35,0,0,1,67.88,12.51Z"/><path class="cls-1" d="M73.55,3.88h6.39V5.54H75.39V7.26h4V8.92h-4V10.7H80v1.67H73.55Z"/></g></g></svg>