<?xml version="1.0" encoding="utf-8"?>
<!-- Generator: Adobe Illustrator 22.0.0, SVG Export Plug-In . SVG Version: 6.00 Build 0)  -->
<svg version="1.1" id="Слой_1" xmlns="http://www.w3.org/2000/svg" xmlns:xlink="http://www.w3.org/1999/xlink" x="0px" y="0px"
	 viewBox="0 0 40 39" style="enable-background:new 0 0 40 39;" xml:space="preserve">
<style type="text/css">
	.st0{fill:#FFFFFF;}
</style>
<path class="st0" d="M39.1,17.3c0.8-0.8,1.1-1.9,0.7-2.9c-0.3-1-1.2-1.8-2.3-1.9l-9.7-1.4c-0.4-0.1-0.8-0.3-0.9-0.7l-4.3-8.8
	C22.1,0.6,21.1,0,20,0s-2.1,0.6-2.6,1.6l-4.3,8.8c-0.2,0.4-0.5,0.6-1,0.7l-9.7,1.4c-1.1,0.2-2,0.9-2.3,1.9S0,16.6,0.8,17.3l7,6.8
	c0.3,0.3,0.4,0.7,0.4,1.1l-1.7,9.6c-0.2,1.1,0.3,2.2,1.1,2.8c0.9,0.6,2,0.7,3,0.2l8.7-4.6c0.4-0.2,0.8-0.2,1.2,0l8.6,4.6
	c0.4,0.2,0.9,0.3,1.3,0.3c0.6,0,1.2-0.2,1.7-0.6c0.9-0.6,1.3-1.7,1.1-2.8l-1.7-9.6c-0.1-0.4,0.1-0.8,0.4-1.1L39.1,17.3z M30.1,25.6
	l1.7,9.6c0.1,0.5-0.1,0.9-0.5,1.2s-0.9,0.3-1.3,0.1L21.3,32c-0.4-0.2-0.9-0.3-1.3-0.3c-0.5,0-0.9,0.1-1.3,0.3L10,36.5
	c-0.4,0.2-0.9,0.2-1.3-0.1c-0.4-0.3-0.6-0.8-0.5-1.2l1.7-9.6c0.2-0.9-0.1-1.9-0.8-2.5l-7-6.8C1.7,16,1.6,15.5,1.8,15
	c0.2-0.5,0.5-0.8,1-0.9l9.7-1.4c0.9-0.1,1.7-0.7,2.2-1.6L19,2.3c0.2-0.4,0.6-0.7,1.1-0.7s0.9,0.3,1.1,0.7l4.3,8.8
	c0.4,0.8,1.2,1.4,2.2,1.6l9.7,1.4c0.5,0.1,0.9,0.4,1,0.9c0.2,0.5,0,1-0.3,1.3l-7,6.8C30.3,23.7,30,24.6,30.1,25.6L30.1,25.6z"/>
</svg>
